<svg xmlns="http://www.w3.org/2000/svg" id="canvas" viewBox="370.097 278.966 924.166 357.488"><path d="M 495.19,365.58 C 495.15 367.49, 495.90 369.39, 496.61 374.85 C 497.32 380.32, 498.05 383.79, 498.72 392.92 C 499.38 402.06, 499.87 408.39, 499.94 420.52 C 500.01 432.66, 499.71 439.65, 499.06 453.58 C 498.41 467.51, 498.09 475.63, 496.71 490.18 C 495.32 504.73, 494.42 512.43, 492.14 526.33 C 489.87 540.24, 488.50 547.26, 485.34 559.71 C 482.18 572.15, 480.50 578.35, 476.36 588.55 C 472.23 598.76, 469.98 603.40, 464.67 610.74 C 459.36 618.07, 456.04 621.07, 449.82 625.24 C 443.61 629.41, 440.25 630.76, 433.60 631.60 C 426.96 632.43, 423.41 631.70, 416.58 629.43 C 409.75 627.17, 405.75 625.01, 399.46 620.28 C 393.16 615.55, 389.77 612.21, 385.12 605.77 C 380.48 599.33, 378.23 595.87, 376.23 588.06 C 374.24 580.25, 373.93 575.90, 375.15 566.74 C 376.36 557.58, 377.92 552.23, 382.30 542.26 C 386.68 532.28, 389.83 526.99, 397.05 516.86 C 404.27 506.73, 409.10 501.04, 418.40 491.61 C 427.70 482.18, 433.39 477.50, 443.56 469.70 C 453.72 461.90, 459.40 458.46, 469.23 452.61 C 479.05 446.77, 483.98 444.15, 492.69 440.47 C 501.40 436.80, 505.90 435.68, 512.77 434.25 C 519.63 432.82, 522.32 432.94, 527.01 433.32 C 531.69 433.70, 534.28 435.85, 536.21 436.16 C 538.13 436.46, 538.45 435.72, 536.64 434.82 C 534.82 433.92, 531.98 432.04, 527.14 431.64 C 522.31 431.24, 519.44 431.27, 512.46 432.81 C 505.47 434.36, 500.97 435.59, 492.22 439.37 C 483.47 443.15, 478.54 445.81, 468.69 451.72 C 458.84 457.63, 453.16 461.08, 442.96 468.91 C 432.76 476.75, 427.05 481.44, 417.69 490.91 C 408.34 500.38, 403.48 506.07, 396.19 516.24 C 388.90 526.42, 385.70 531.72, 381.23 541.79 C 376.77 551.85, 375.14 557.24, 373.87 566.57 C 372.60 575.89, 372.87 580.38, 374.87 588.40 C 376.87 596.42, 379.16 600.03, 383.89 606.66 C 388.61 613.28, 392.06 616.69, 398.50 621.54 C 404.94 626.40, 409.03 628.62, 416.09 630.92 C 423.15 633.23, 426.90 633.99, 433.80 633.08 C 440.69 632.17, 444.22 630.69, 450.58 626.36 C 456.95 622.03, 460.28 618.91, 465.63 611.43 C 470.97 603.94, 473.20 599.24, 477.32 588.94 C 481.44 578.64, 483.10 572.43, 486.24 559.93 C 489.38 547.44, 490.75 540.41, 493.02 526.47 C 495.29 512.54, 496.20 504.83, 497.60 490.26 C 499.01 475.70, 499.34 467.57, 500.05 453.63 C 500.76 439.68, 501.11 432.68, 501.15 420.52 C 501.19 408.36, 500.80 402.00, 500.26 392.82 C 499.72 383.64, 499.16 380.12, 498.47 374.62 C 497.78 369.12, 497.47 367.12, 496.81 365.31 C 496.16 363.51, 495.23 363.67, 495.19 365.58" style="stroke: black; fill: black;"/><path d="M 547.36,309.50 C 547.37 308.82, 547.15 308.15, 546.76 308.01 C 546.36 307.87, 545.75 308.14, 545.39 308.78 C 545.04 309.43, 544.92 310.51, 544.98 311.22 C 545.04 311.93, 545.35 312.31, 545.70 312.35 C 546.04 312.39, 546.38 311.98, 546.71 311.41 C 547.05 310.84, 547.35 310.18, 547.36 309.50" style="stroke: black; fill: black;"/><path d="M 601.66,376.57 C 601.40 378.78, 601.90 382.02, 602.23 387.54 C 602.56 393.05, 603.06 397.10, 603.31 404.14 C 603.56 411.19, 603.53 415.98, 603.47 422.77 C 603.40 429.56, 603.09 432.92, 602.99 438.08 C 602.89 443.25, 602.75 445.70, 602.97 448.60 C 603.19 451.50, 603.70 451.80, 604.10 452.58 C 604.50 453.36, 604.70 453.32, 604.97 452.51 C 605.24 451.70, 605.40 451.41, 605.47 448.53 C 605.54 445.65, 605.30 443.26, 605.32 438.11 C 605.34 432.96, 605.55 429.59, 605.57 422.78 C 605.58 415.97, 605.64 411.15, 605.39 404.07 C 605.15 396.99, 604.72 392.92, 604.34 387.40 C 603.96 381.88, 604.04 378.61, 603.50 376.45 C 602.96 374.28, 601.91 374.35, 601.66 376.57" style="stroke: black; fill: black;"/><path d="M 652.67,364.11 C 652.50 365.48, 652.98 366.72, 653.43 370.64 C 653.88 374.56, 654.57 377.63, 654.93 383.72 C 655.29 389.81, 655.22 394.10, 655.24 401.11 C 655.25 408.12, 654.96 412.57, 654.99 418.77 C 655.02 424.97, 654.48 428.18, 655.37 432.09 C 656.25 436.01, 656.97 437.61, 659.41 438.35 C 661.84 439.09, 663.63 438.13, 667.56 435.80 C 671.49 433.47, 673.69 431.14, 679.05 426.72 C 684.41 422.29, 688.00 418.87, 694.36 413.69 C 700.73 408.52, 704.72 405.00, 710.89 400.84 C 717.05 396.68, 720.32 394.67, 725.18 392.90 C 730.05 391.12, 732.16 390.98, 735.22 391.97 C 738.27 392.96, 738.96 394.36, 740.45 397.87 C 741.94 401.38, 741.91 404.47, 742.65 409.52 C 743.39 414.58, 743.32 418.14, 744.15 423.13 C 744.98 428.13, 745.15 431.10, 746.81 434.50 C 748.46 437.90, 749.89 439.00, 752.41 440.14 C 754.93 441.29, 756.91 440.81, 759.40 440.23 C 761.89 439.65, 763.93 438.22, 764.86 437.25 C 765.80 436.28, 765.31 435.44, 764.08 435.38 C 762.84 435.31, 760.79 436.52, 758.69 436.93 C 756.59 437.35, 755.40 438.20, 753.58 437.46 C 751.75 436.71, 750.87 436.18, 749.55 433.22 C 748.23 430.26, 747.82 427.47, 746.97 422.65 C 746.12 417.83, 746.15 414.27, 745.29 409.11 C 744.43 403.95, 744.55 400.69, 742.67 396.85 C 740.79 393.01, 739.52 391.05, 735.88 389.89 C 732.25 388.73, 729.72 389.17, 724.51 391.06 C 719.31 392.94, 716.13 395.10, 709.87 399.33 C 703.60 403.56, 699.61 407.08, 693.17 412.22 C 686.74 417.36, 683.06 420.73, 677.68 425.03 C 672.30 429.33, 669.82 431.43, 666.27 433.71 C 662.72 436.00, 661.64 436.88, 659.93 436.46 C 658.23 436.05, 658.30 435.18, 657.75 431.63 C 657.21 428.09, 657.28 424.86, 657.22 418.75 C 657.16 412.65, 657.43 408.14, 657.46 401.11 C 657.49 394.08, 657.64 389.76, 657.38 383.59 C 657.12 377.43, 656.78 374.23, 656.16 370.27 C 655.53 366.30, 654.95 365.01, 654.26 363.78 C 653.56 362.55, 652.83 362.74, 652.67 364.11" style="stroke: black; fill: black;"/><path d="M 846.60,283.15 C 846.17 284.74, 846.65 286.02, 846.00 291.18 C 845.34 296.33, 844.97 299.87, 843.33 308.92 C 841.70 317.97, 840.59 324.62, 837.83 336.42 C 835.07 348.23, 832.88 355.77, 829.54 367.94 C 826.19 380.12, 824.07 387.07, 821.12 397.30 C 818.17 407.54, 816.37 412.27, 814.77 419.12 C 813.16 425.98, 812.31 428.56, 813.07 431.58 C 813.84 434.60, 815.36 434.97, 818.57 434.22 C 821.78 433.47, 824.04 431.47, 829.13 427.83 C 834.21 424.19, 837.68 421.01, 843.99 416.02 C 850.31 411.02, 854.21 407.52, 860.70 402.86 C 867.20 398.20, 870.81 395.53, 876.48 392.71 C 882.15 389.90, 884.96 388.99, 889.04 388.77 C 893.12 388.55, 894.52 389.55, 896.88 391.62 C 899.23 393.69, 899.72 395.51, 900.83 399.14 C 901.93 402.76, 902.14 405.24, 902.40 409.75 C 902.66 414.25, 902.31 417.11, 902.14 421.65 C 901.97 426.18, 901.58 428.84, 901.55 432.41 C 901.52 435.98, 901.59 438.06, 901.98 439.49 C 902.37 440.92, 903.00 440.94, 903.51 439.56 C 904.01 438.17, 904.17 436.12, 904.50 432.56 C 904.83 429.00, 905.00 426.35, 905.16 421.75 C 905.31 417.15, 905.63 414.25, 905.29 409.56 C 904.95 404.86, 904.81 402.25, 903.44 398.28 C 902.07 394.32, 901.35 392.07, 898.45 389.74 C 895.54 387.42, 893.48 386.41, 888.93 386.67 C 884.37 386.94, 881.51 388.11, 875.65 391.06 C 869.80 394.01, 866.24 396.73, 859.66 401.41 C 853.09 406.08, 849.13 409.52, 842.76 414.44 C 836.40 419.37, 832.81 422.50, 827.85 426.05 C 822.89 429.59, 820.53 431.13, 817.94 432.17 C 815.35 433.20, 815.23 433.76, 814.88 431.22 C 814.54 428.67, 814.73 426.17, 816.20 419.45 C 817.68 412.73, 819.39 407.87, 822.27 397.63 C 825.16 387.39, 827.28 380.43, 830.64 368.25 C 834.00 356.07, 836.23 348.53, 839.08 336.72 C 841.94 324.91, 843.13 318.27, 844.90 309.21 C 846.67 300.15, 847.28 296.62, 847.93 291.42 C 848.57 286.22, 848.40 284.88, 848.13 283.22 C 847.87 281.57, 847.02 281.55, 846.60 283.15" style="stroke: black; fill: black;"/><path d="M 997.89,382.76 C 996.68 383.17, 995.58 383.55, 992.87 386.03 C 990.16 388.52, 988.40 390.73, 984.35 395.17 C 980.30 399.60, 977.20 402.71, 972.63 408.22 C 968.06 413.72, 965.09 417.35, 961.49 422.71 C 957.90 428.06, 955.95 430.95, 954.64 434.99 C 953.33 439.02, 953.44 441.03, 954.93 442.90 C 956.42 444.77, 958.59 445.11, 962.08 444.33 C 965.58 443.55, 967.80 442.10, 972.40 439.01 C 977.01 435.91, 980.05 433.51, 985.10 428.87 C 990.16 424.22, 993.00 420.65, 997.67 415.78 C 1002.33 410.92, 1004.82 407.82, 1008.42 404.56 C 1012.03 401.30, 1013.88 400.10, 1015.69 399.47 C 1017.50 398.84, 1017.11 399.27, 1017.46 401.40 C 1017.80 403.53, 1017.43 406.11, 1017.42 410.11 C 1017.40 414.11, 1017.12 417.08, 1017.37 421.41 C 1017.63 425.74, 1017.36 428.61, 1018.69 431.78 C 1020.02 434.95, 1021.48 436.19, 1024.02 437.26 C 1026.56 438.33, 1028.25 438.45, 1031.40 437.11 C 1034.55 435.77, 1036.12 433.91, 1039.77 430.56 C 1043.43 427.21, 1045.63 425.01, 1049.69 420.38 C 1053.75 415.74, 1056.05 412.30, 1060.08 407.39 C 1064.11 402.49, 1066.49 399.47, 1069.86 395.86 C 1073.22 392.26, 1075.02 390.66, 1076.91 389.36 C 1078.81 388.05, 1078.79 387.96, 1079.33 389.32 C 1079.88 390.69, 1079.74 392.68, 1079.62 396.19 C 1079.49 399.70, 1078.72 402.60, 1078.70 406.88 C 1078.68 411.16, 1078.60 414.15, 1079.54 417.61 C 1080.47 421.07, 1081.05 422.73, 1083.37 424.17 C 1085.70 425.61, 1087.29 425.80, 1091.17 424.81 C 1095.04 423.82, 1097.42 422.17, 1102.74 419.23 C 1108.07 416.30, 1111.66 413.81, 1117.80 410.14 C 1123.94 406.46, 1127.72 403.88, 1133.43 400.86 C 1139.14 397.84, 1141.99 396.23, 1146.37 395.03 C 1150.74 393.84, 1152.60 393.95, 1155.30 394.87 C 1157.99 395.79, 1158.60 396.87, 1159.83 399.64 C 1161.07 402.40, 1160.97 404.66, 1161.49 408.70 C 1162.01 412.74, 1161.76 415.46, 1162.43 419.84 C 1163.10 424.21, 1163.55 426.79, 1164.85 430.56 C 1166.15 434.33, 1167.77 437.22, 1168.93 438.70 C 1170.09 440.18, 1170.90 439.76, 1170.66 437.96 C 1170.41 436.15, 1168.73 433.39, 1167.71 429.67 C 1166.68 425.96, 1166.17 423.65, 1165.54 419.37 C 1164.91 415.09, 1165.19 412.47, 1164.56 408.27 C 1163.94 404.07, 1164.11 401.52, 1162.42 398.36 C 1160.73 395.20, 1159.43 393.55, 1156.10 392.46 C 1152.77 391.36, 1150.50 391.56, 1145.77 392.87 C 1141.04 394.18, 1138.27 395.93, 1132.45 399.01 C 1126.64 402.08, 1122.87 404.65, 1116.69 408.26 C 1110.51 411.87, 1106.83 414.30, 1101.57 417.06 C 1096.32 419.83, 1093.78 421.10, 1090.42 422.09 C 1087.07 423.07, 1086.28 423.02, 1084.81 421.98 C 1083.34 420.93, 1083.53 419.87, 1083.08 416.85 C 1082.63 413.84, 1082.56 411.04, 1082.57 406.89 C 1082.59 402.75, 1083.45 399.86, 1083.17 396.11 C 1082.88 392.37, 1082.65 389.97, 1081.15 388.16 C 1079.64 386.35, 1078.27 385.86, 1075.64 387.06 C 1073.01 388.26, 1071.46 390.37, 1068.00 394.14 C 1064.53 397.92, 1062.33 401.02, 1058.31 405.94 C 1054.28 410.86, 1051.95 414.25, 1047.87 418.75 C 1043.78 423.25, 1041.45 425.36, 1037.89 428.44 C 1034.33 431.52, 1032.62 432.91, 1030.06 434.16 C 1027.51 435.41, 1026.73 435.42, 1025.12 434.70 C 1023.51 433.98, 1022.82 433.27, 1022.01 430.57 C 1021.21 427.87, 1021.31 425.31, 1021.08 421.20 C 1020.85 417.09, 1021.08 414.15, 1020.87 410.03 C 1020.65 405.90, 1021.14 403.13, 1020.00 400.59 C 1018.86 398.05, 1017.81 396.90, 1015.18 397.34 C 1012.54 397.78, 1010.64 399.39, 1006.83 402.78 C 1003.01 406.17, 1000.76 409.42, 996.11 414.30 C 991.46 419.18, 988.61 422.68, 983.58 427.19 C 978.56 431.70, 975.42 433.95, 970.97 436.84 C 966.52 439.73, 964.26 440.65, 961.34 441.63 C 958.43 442.61, 957.27 442.92, 956.39 441.76 C 955.51 440.59, 955.54 439.36, 956.93 435.80 C 958.31 432.23, 959.84 429.16, 963.33 423.93 C 966.81 418.70, 969.77 415.06, 974.34 409.65 C 978.92 404.25, 982.09 401.20, 986.20 396.90 C 990.31 392.59, 992.36 390.71, 994.89 388.13 C 997.43 385.54, 998.29 385.04, 998.89 383.97 C 999.49 382.90, 999.09 382.34, 997.89 382.76" style="stroke: black; fill: black;"/><path d="M 1261.82,411.04 C 1262.54 410.31, 1263.65 409.10, 1263.64 406.94 C 1263.64 404.78, 1263.59 402.82, 1261.81 400.26 C 1260.02 397.69, 1258.44 396.04, 1254.71 394.10 C 1250.98 392.17, 1248.30 391.19, 1243.17 390.58 C 1238.04 389.97, 1234.82 390.11, 1229.08 391.04 C 1223.34 391.97, 1219.81 392.80, 1214.47 395.24 C 1209.13 397.67, 1206.08 399.81, 1202.36 403.22 C 1198.65 406.64, 1196.99 408.80, 1195.89 412.31 C 1194.79 415.81, 1194.93 417.94, 1196.86 420.76 C 1198.79 423.59, 1201.05 424.78, 1205.54 426.43 C 1210.04 428.08, 1213.33 428.47, 1219.32 429.00 C 1225.31 429.54, 1228.88 429.32, 1235.50 429.11 C 1242.12 428.90, 1245.95 428.50, 1252.43 427.96 C 1258.91 427.42, 1262.53 426.89, 1267.89 426.41 C 1273.25 425.94, 1275.66 425.33, 1279.23 425.59 C 1282.81 425.86, 1283.87 425.85, 1285.76 427.75 C 1287.65 429.65, 1288.29 430.86, 1288.69 435.11 C 1289.09 439.36, 1288.66 442.43, 1287.75 449.01 C 1286.84 455.59, 1285.93 459.75, 1284.14 468.00 C 1282.34 476.26, 1281.21 481.31, 1278.77 490.27 C 1276.34 499.23, 1274.82 504.28, 1271.98 512.80 C 1269.14 521.32, 1267.62 525.93, 1264.57 532.87 C 1261.52 539.80, 1259.84 542.82, 1256.73 547.49 C 1253.62 552.15, 1252.09 553.80, 1249.00 556.21 C 1245.91 558.62, 1244.66 559.16, 1241.27 559.52 C 1237.89 559.87, 1235.99 559.31, 1232.06 557.98 C 1228.14 556.65, 1225.81 555.60, 1221.65 552.87 C 1217.49 550.14, 1215.07 548.39, 1211.26 544.33 C 1207.46 540.27, 1205.43 537.23, 1202.64 532.57 C 1199.85 527.90, 1198.97 524.96, 1197.29 521.02 C 1195.61 517.07, 1195.13 514.40, 1194.22 512.86 C 1193.31 511.33, 1192.57 511.53, 1192.73 513.34 C 1192.90 515.15, 1193.49 517.82, 1195.06 521.92 C 1196.62 526.01, 1197.66 529.01, 1200.55 533.82 C 1203.44 538.63, 1205.58 541.73, 1209.52 545.96 C 1213.45 550.20, 1215.91 552.08, 1220.25 554.99 C 1224.59 557.90, 1226.95 559.10, 1231.22 560.51 C 1235.48 561.92, 1237.75 562.56, 1241.58 562.04 C 1245.41 561.52, 1247.03 560.63, 1250.37 557.92 C 1253.70 555.21, 1255.13 553.37, 1258.26 548.49 C 1261.39 543.60, 1262.98 540.53, 1266.00 533.49 C 1269.02 526.45, 1270.52 521.83, 1273.36 513.26 C 1276.20 504.70, 1277.72 499.64, 1280.21 490.67 C 1282.70 481.69, 1283.88 476.65, 1285.80 468.38 C 1287.72 460.11, 1288.73 456.01, 1289.80 449.31 C 1290.87 442.62, 1291.57 439.56, 1291.13 434.88 C 1290.70 430.20, 1289.96 428.26, 1287.62 425.91 C 1285.28 423.55, 1283.42 423.44, 1279.43 423.10 C 1275.45 422.76, 1273.11 423.63, 1267.67 424.19 C 1262.24 424.76, 1258.70 425.36, 1252.25 425.92 C 1245.81 426.48, 1241.98 426.85, 1235.44 427.00 C 1228.90 427.14, 1225.35 427.24, 1219.55 426.63 C 1213.76 426.02, 1210.55 425.43, 1206.45 423.94 C 1202.36 422.45, 1200.70 421.33, 1199.10 419.17 C 1197.50 417.01, 1197.45 415.97, 1198.44 413.15 C 1199.43 410.33, 1200.66 408.22, 1204.06 405.06 C 1207.46 401.91, 1210.36 399.69, 1215.44 397.37 C 1220.52 395.04, 1223.98 394.23, 1229.45 393.43 C 1234.92 392.62, 1238.08 392.59, 1242.79 393.34 C 1247.50 394.08, 1249.94 395.24, 1253.00 397.14 C 1256.05 399.04, 1256.69 400.79, 1258.09 402.83 C 1259.48 404.87, 1259.60 405.77, 1259.99 407.33 C 1260.38 408.88, 1259.67 409.87, 1260.04 410.61 C 1260.40 411.36, 1261.09 411.78, 1261.82 411.04" style="stroke: black; fill: black;"/></svg>