<svg xmlns="http://www.w3.org/2000/svg" id="canvas" viewBox="380.511 274.740 964.834 399.022"><path d="M 486.79,392.09 C 486.52 393.70, 486.84 395.24, 487.85 399.69 C 488.86 404.14, 489.71 406.72, 491.85 414.34 C 493.99 421.97, 495.37 427.19, 498.54 437.82 C 501.71 448.45, 503.83 454.63, 507.71 467.51 C 511.59 480.39, 514.08 488.06, 517.95 502.21 C 521.83 516.36, 523.97 523.98, 527.10 538.26 C 530.24 552.54, 531.95 560.15, 533.64 573.61 C 535.33 587.06, 535.79 593.91, 535.56 605.53 C 535.34 617.14, 534.74 622.60, 532.50 631.67 C 530.26 640.75, 528.71 644.72, 524.38 650.89 C 520.04 657.07, 517.27 659.12, 510.83 662.53 C 504.40 665.95, 500.46 667.00, 492.20 667.97 C 483.94 668.94, 478.86 668.95, 469.53 667.39 C 460.21 665.82, 454.88 664.03, 445.57 660.13 C 436.26 656.23, 431.22 653.50, 422.99 647.89 C 414.76 642.28, 410.59 638.85, 404.42 632.09 C 398.25 625.33, 395.77 621.35, 392.14 614.09 C 388.51 606.82, 387.26 603.17, 386.27 595.75 C 385.28 588.33, 385.54 584.61, 387.18 576.99 C 388.82 569.37, 390.34 565.54, 394.48 557.66 C 398.63 549.77, 401.56 545.67, 407.91 537.56 C 414.25 529.45, 418.18 525.26, 426.22 517.12 C 434.27 508.97, 439.09 504.69, 448.13 496.84 C 457.16 488.98, 462.14 485.00, 471.40 477.84 C 480.67 470.67, 485.69 467.13, 494.43 461.00 C 503.17 454.88, 507.51 452.00, 515.10 447.23 C 522.70 442.45, 526.12 440.48, 532.39 437.13 C 538.66 433.78, 541.37 432.28, 546.45 430.46 C 551.54 428.65, 553.56 428.14, 557.82 428.06 C 562.08 427.98, 563.77 428.67, 567.75 430.06 C 571.73 431.44, 573.61 432.62, 577.70 434.99 C 581.79 437.36, 583.92 439.10, 588.21 441.92 C 592.50 444.74, 594.96 446.74, 599.16 449.09 C 603.36 451.45, 605.61 452.63, 609.21 453.69 C 612.82 454.75, 614.41 454.51, 617.19 454.38 C 619.96 454.25, 621.38 453.98, 623.08 453.02 C 624.77 452.07, 625.43 450.59, 625.66 449.59 C 625.89 448.58, 625.05 448.07, 624.24 447.98 C 623.43 447.89, 623.03 448.91, 621.60 449.15 C 620.16 449.39, 619.29 449.17, 617.05 449.17 C 614.82 449.16, 613.61 449.88, 610.43 449.12 C 607.25 448.37, 605.17 447.51, 601.16 445.41 C 597.14 443.30, 594.67 441.36, 590.36 438.60 C 586.04 435.85, 583.90 434.06, 579.60 431.65 C 575.31 429.25, 573.28 427.95, 568.90 426.57 C 564.52 425.20, 562.38 424.52, 557.69 424.78 C 553.01 425.04, 550.77 425.81, 545.49 427.88 C 540.21 429.96, 537.58 431.59, 531.29 435.14 C 525.01 438.68, 521.64 440.71, 514.07 445.60 C 506.50 450.49, 502.17 453.41, 493.44 459.60 C 484.71 465.78, 479.68 469.34, 470.40 476.55 C 461.13 483.75, 456.13 487.73, 447.05 495.60 C 437.97 503.47, 433.12 507.74, 424.99 515.90 C 416.87 524.06, 412.89 528.23, 406.42 536.39 C 399.96 544.55, 396.93 548.67, 392.66 556.69 C 388.39 564.72, 386.77 568.66, 385.06 576.53 C 383.35 584.40, 383.08 588.34, 384.13 596.04 C 385.17 603.74, 386.52 607.54, 390.29 615.01 C 394.06 622.49, 396.65 626.52, 402.97 633.41 C 409.30 640.30, 413.55 643.76, 421.92 649.46 C 430.29 655.16, 435.37 657.93, 444.82 661.92 C 454.27 665.91, 459.66 667.77, 469.19 669.41 C 478.71 671.04, 483.92 671.10, 492.45 670.10 C 500.97 669.09, 505.13 668.02, 511.83 664.40 C 518.54 660.78, 521.51 658.47, 525.98 652.01 C 530.45 645.55, 531.95 641.37, 534.17 632.08 C 536.39 622.79, 536.90 617.28, 537.07 605.55 C 537.24 593.82, 536.73 586.95, 535.00 573.43 C 533.27 559.92, 531.55 552.30, 528.41 537.98 C 525.27 523.66, 523.13 516.02, 519.30 501.84 C 515.47 487.65, 513.01 479.97, 509.24 467.05 C 505.48 454.14, 503.44 447.94, 500.48 437.26 C 497.52 426.58, 496.31 421.33, 494.44 413.66 C 492.57 405.99, 492.17 403.34, 491.13 398.93 C 490.08 394.52, 490.09 392.97, 489.22 391.60 C 488.35 390.24, 487.07 390.47, 486.79 392.09" style="stroke: black; fill: black;"/><path d="M 566.98,338.97 C 566.56 340.35, 566.84 342.53, 567.82 344.41 C 568.80 346.30, 570.46 347.92, 571.86 348.39 C 573.26 348.86, 574.45 348.17, 574.81 346.76 C 575.17 345.35, 574.66 343.18, 573.67 341.33 C 572.69 339.48, 571.22 337.99, 569.88 337.51 C 568.54 337.04, 567.39 337.59, 566.98 338.97" style="stroke: black; fill: black;"/><path d="M 643.17,401.48 C 643.16 403.10, 644.03 404.91, 645.58 408.31 C 647.13 411.71, 648.63 414.24, 650.93 418.46 C 653.23 422.69, 654.57 425.54, 657.09 429.44 C 659.60 433.34, 660.64 435.66, 663.48 437.97 C 666.32 440.28, 668.29 441.29, 671.29 440.99 C 674.29 440.69, 675.57 439.30, 678.48 436.47 C 681.39 433.63, 682.63 430.98, 685.83 426.82 C 689.03 422.66, 690.92 419.58, 694.47 415.67 C 698.01 411.76, 699.63 409.35, 703.55 407.26 C 707.47 405.16, 709.34 404.76, 714.05 405.19 C 718.77 405.62, 721.77 406.95, 727.13 409.39 C 732.49 411.84, 735.56 414.02, 740.86 417.41 C 746.16 420.80, 748.67 423.03, 753.62 426.34 C 758.56 429.66, 761.08 431.51, 765.60 433.99 C 770.11 436.46, 772.22 437.79, 776.20 438.72 C 780.19 439.65, 781.87 439.57, 785.54 438.64 C 789.21 437.71, 790.87 437.03, 794.56 434.08 C 798.24 431.13, 800.38 429.22, 803.97 423.90 C 807.55 418.58, 809.53 414.93, 812.48 407.48 C 815.43 400.02, 817.12 395.62, 818.71 386.62 C 820.30 377.62, 820.65 372.28, 820.42 362.48 C 820.19 352.68, 819.67 347.22, 817.57 337.62 C 815.47 328.02, 813.56 322.82, 809.93 314.46 C 806.30 306.10, 803.83 302.17, 799.42 295.83 C 795.01 289.48, 792.54 286.36, 787.89 282.74 C 783.23 279.12, 780.33 277.71, 776.16 277.74 C 771.99 277.76, 769.43 279.18, 767.05 282.85 C 764.67 286.52, 764.28 289.51, 764.26 296.08 C 764.23 302.66, 764.90 307.06, 766.92 315.72 C 768.95 324.38, 770.64 329.93, 774.38 339.40 C 778.11 348.88, 780.65 354.18, 785.61 363.08 C 790.57 371.97, 793.62 376.42, 799.17 383.87 C 804.71 391.33, 808.00 394.98, 813.34 400.35 C 818.68 405.71, 821.32 407.81, 825.87 410.69 C 830.42 413.58, 832.27 414.52, 836.11 414.78 C 839.95 415.03, 841.94 414.16, 845.05 411.98 C 848.17 409.81, 849.14 407.38, 851.70 403.90 C 854.26 400.41, 855.34 398.19, 857.85 394.56 C 860.36 390.93, 861.82 388.51, 864.24 385.75 C 866.66 382.99, 867.71 381.70, 869.95 380.77 C 872.19 379.84, 872.58 379.89, 875.42 381.10 C 878.26 382.31, 880.12 383.81, 884.16 386.82 C 888.21 389.84, 890.78 392.23, 895.65 396.18 C 900.52 400.12, 903.25 402.72, 908.51 406.55 C 913.78 410.38, 916.49 412.48, 921.97 415.33 C 927.46 418.18, 930.23 419.34, 935.93 420.79 C 941.64 422.25, 944.62 422.69, 950.50 422.60 C 956.37 422.52, 959.47 422.10, 965.32 420.36 C 971.18 418.62, 974.43 417.17, 979.75 413.92 C 985.08 410.66, 987.88 408.34, 991.95 404.09 C 996.03 399.84, 997.56 397.07, 1000.14 392.66 C 1002.73 388.24, 1003.73 385.94, 1004.87 382.01 C 1006.00 378.08, 1006.49 376.04, 1005.83 373.02 C 1005.17 370.01, 1004.16 368.27, 1001.57 366.94 C 998.98 365.61, 996.61 365.27, 992.86 366.37 C 989.12 367.48, 986.99 369.44, 982.84 372.47 C 978.69 375.50, 975.89 377.34, 972.12 381.52 C 968.35 385.70, 966.10 388.61, 963.99 393.37 C 961.87 398.12, 961.24 400.94, 961.54 405.30 C 961.85 409.66, 962.89 411.90, 965.52 415.18 C 968.16 418.45, 970.41 419.93, 974.70 421.66 C 979.00 423.38, 982.28 423.78, 986.99 423.80 C 991.69 423.81, 994.09 423.32, 998.24 421.73 C 1002.39 420.13, 1004.34 418.42, 1007.74 415.83 C 1011.15 413.23, 1012.96 411.28, 1015.26 408.76 C 1017.57 406.24, 1018.12 404.67, 1019.26 403.21 C 1020.40 401.75, 1020.10 401.08, 1020.96 401.45 C 1021.83 401.82, 1021.85 403.18, 1023.59 405.07 C 1025.33 406.97, 1026.84 408.57, 1029.66 410.93 C 1032.49 413.30, 1034.35 414.88, 1037.71 416.89 C 1041.06 418.90, 1043.03 420.05, 1046.46 420.98 C 1049.89 421.92, 1051.65 422.20, 1054.86 421.56 C 1058.07 420.93, 1059.73 420.03, 1062.50 417.80 C 1065.27 415.58, 1066.40 413.85, 1068.70 410.44 C 1071.00 407.03, 1072.09 404.61, 1074.01 400.74 C 1075.93 396.87, 1076.76 394.14, 1078.29 391.09 C 1079.82 388.03, 1080.36 386.70, 1081.66 385.46 C 1082.96 384.22, 1082.95 384.17, 1084.80 384.90 C 1086.65 385.63, 1087.76 386.60, 1090.90 389.12 C 1094.03 391.64, 1096.55 394.16, 1100.47 397.50 C 1104.38 400.85, 1106.53 402.91, 1110.46 405.85 C 1114.39 408.80, 1116.32 410.11, 1120.11 412.22 C 1123.90 414.33, 1125.87 415.51, 1129.42 416.39 C 1132.98 417.28, 1134.84 417.34, 1137.89 416.65 C 1140.93 415.96, 1142.46 414.74, 1144.64 412.94 C 1146.83 411.13, 1147.68 409.55, 1148.80 407.64 C 1149.93 405.73, 1149.55 404.33, 1150.26 403.37 C 1150.97 402.42, 1150.66 402.48, 1152.35 402.85 C 1154.04 403.23, 1155.34 403.79, 1158.72 405.25 C 1162.09 406.70, 1164.29 407.93, 1169.22 410.13 C 1174.15 412.33, 1177.70 414.04, 1183.36 416.24 C 1189.03 418.44, 1192.62 419.64, 1197.54 421.12 C 1202.46 422.60, 1205.73 423.63, 1207.96 423.64 C 1210.19 423.64, 1210.54 422.33, 1208.68 421.16 C 1206.81 419.99, 1203.41 419.48, 1198.63 417.78 C 1193.85 416.09, 1190.31 414.99, 1184.80 412.69 C 1179.29 410.38, 1175.85 408.71, 1171.07 406.26 C 1166.30 403.82, 1164.52 402.22, 1160.90 400.47 C 1157.28 398.72, 1155.75 397.68, 1152.97 397.53 C 1150.20 397.38, 1148.91 398.38, 1147.02 399.73 C 1145.14 401.07, 1144.80 402.47, 1143.55 404.25 C 1142.29 406.03, 1142.13 407.19, 1140.74 408.64 C 1139.34 410.08, 1138.61 410.87, 1136.57 411.48 C 1134.53 412.08, 1133.41 412.26, 1130.52 411.65 C 1127.63 411.05, 1125.65 410.28, 1122.14 408.45 C 1118.64 406.62, 1116.73 405.38, 1113.00 402.51 C 1109.27 399.63, 1107.28 397.53, 1103.48 394.08 C 1099.67 390.64, 1097.42 388.01, 1093.95 385.28 C 1090.48 382.55, 1089.13 381.13, 1086.12 380.43 C 1083.11 379.73, 1081.40 380.15, 1078.89 381.78 C 1076.38 383.40, 1075.47 385.22, 1073.57 388.56 C 1071.68 391.91, 1071.24 394.70, 1069.41 398.49 C 1067.58 402.29, 1066.48 404.51, 1064.42 407.54 C 1062.36 410.56, 1061.23 411.89, 1059.11 413.62 C 1056.99 415.35, 1056.04 415.80, 1053.83 416.20 C 1051.62 416.61, 1050.65 416.48, 1048.04 415.63 C 1045.44 414.78, 1043.66 413.84, 1040.81 411.95 C 1037.97 410.06, 1036.42 408.55, 1033.83 406.18 C 1031.24 403.80, 1030.34 401.78, 1027.88 400.07 C 1025.41 398.36, 1023.88 397.72, 1021.50 397.63 C 1019.12 397.55, 1018.03 398.16, 1015.98 399.65 C 1013.92 401.15, 1013.43 402.59, 1011.20 405.11 C 1008.97 407.62, 1007.74 409.71, 1004.83 412.23 C 1001.92 414.74, 1000.21 416.24, 996.65 417.68 C 993.08 419.11, 991.08 419.41, 987.00 419.40 C 982.93 419.39, 979.94 418.98, 976.27 417.62 C 972.61 416.25, 970.84 415.08, 968.68 412.57 C 966.52 410.05, 965.72 408.55, 965.50 405.03 C 965.27 401.51, 965.62 399.13, 967.54 394.98 C 969.47 390.83, 971.53 388.05, 975.11 384.29 C 978.69 380.53, 981.58 378.79, 985.45 376.18 C 989.33 373.56, 991.61 372.31, 994.47 371.22 C 997.34 370.13, 998.44 370.23, 999.79 370.74 C 1001.15 371.26, 1001.07 371.76, 1001.25 373.79 C 1001.43 375.81, 1001.57 377.46, 1000.71 380.88 C 999.86 384.30, 999.21 386.70, 996.98 390.89 C 994.75 395.08, 993.34 397.76, 989.56 401.83 C 985.79 405.90, 983.13 408.13, 978.10 411.24 C 973.08 414.35, 969.97 415.73, 964.44 417.38 C 958.91 419.04, 956.00 419.43, 950.45 419.52 C 944.90 419.62, 942.10 419.22, 936.68 417.85 C 931.27 416.47, 928.63 415.42, 923.38 412.65 C 918.12 409.88, 915.49 407.84, 910.40 404.00 C 905.30 400.17, 902.67 397.53, 897.91 393.46 C 893.14 389.40, 890.74 386.96, 886.57 383.68 C 882.41 380.40, 880.72 378.54, 877.08 377.08 C 873.43 375.61, 871.62 375.28, 868.34 376.37 C 865.06 377.46, 863.55 379.43, 860.68 382.54 C 857.81 385.64, 856.51 388.16, 853.97 391.90 C 851.42 395.65, 850.26 397.90, 847.97 401.26 C 845.68 404.61, 844.86 406.67, 842.52 408.67 C 840.18 410.68, 839.32 411.36, 836.28 411.27 C 833.25 411.19, 831.63 410.77, 827.37 408.26 C 823.10 405.74, 820.29 403.80, 814.98 398.68 C 809.67 393.56, 806.33 389.96, 800.80 382.65 C 795.27 375.34, 792.22 370.92, 787.34 362.12 C 782.45 353.31, 779.96 348.02, 776.37 338.63 C 772.78 329.24, 771.20 323.67, 769.37 315.17 C 767.54 306.67, 767.14 302.23, 767.23 296.11 C 767.33 290.00, 768.07 287.62, 769.85 284.58 C 771.63 281.55, 772.87 280.88, 776.14 280.95 C 779.41 281.02, 781.92 281.69, 786.20 284.94 C 790.47 288.18, 793.15 291.10, 797.52 297.17 C 801.89 303.24, 804.41 307.12, 808.03 315.29 C 811.65 323.47, 813.56 328.60, 815.63 338.05 C 817.70 347.49, 818.20 352.89, 818.37 362.52 C 818.55 372.15, 818.16 377.42, 816.49 386.21 C 814.82 395.00, 813.05 399.30, 810.01 406.46 C 806.97 413.63, 804.85 417.11, 801.30 422.04 C 797.74 426.96, 795.57 428.54, 792.21 431.07 C 788.86 433.59, 787.57 433.90, 784.54 434.67 C 781.51 435.43, 780.53 435.64, 777.08 434.88 C 773.62 434.12, 771.59 433.12, 767.26 430.87 C 762.92 428.63, 760.34 426.88, 755.40 423.65 C 750.47 420.41, 747.98 418.15, 742.59 414.71 C 737.21 411.26, 734.12 408.99, 728.48 406.43 C 722.83 403.86, 719.65 402.35, 714.35 401.88 C 709.04 401.42, 706.50 401.89, 701.95 404.10 C 697.39 406.32, 695.48 408.94, 691.57 412.95 C 687.66 416.95, 685.69 420.06, 682.41 424.13 C 679.13 428.19, 677.47 430.69, 675.16 433.26 C 672.85 435.83, 672.53 436.76, 670.84 436.98 C 669.16 437.21, 668.67 436.42, 666.73 434.39 C 664.80 432.36, 663.48 430.47, 661.15 426.83 C 658.83 423.19, 657.38 420.33, 655.12 416.18 C 652.86 412.03, 651.75 409.26, 649.85 406.07 C 647.94 402.87, 646.93 401.12, 645.59 400.21 C 644.26 399.29, 643.17 399.86, 643.17 401.48" style="stroke: black; fill: black;"/><path d="M 1264.34,386.67 C 1263.17 386.00, 1261.80 385.50, 1258.93 385.89 C 1256.07 386.29, 1253.91 387.07, 1250.01 388.65 C 1246.11 390.22, 1243.45 391.58, 1239.44 393.75 C 1235.43 395.92, 1232.89 397.10, 1229.95 399.48 C 1227.02 401.85, 1225.50 403.38, 1224.78 405.63 C 1224.07 407.88, 1224.71 409.26, 1226.38 410.74 C 1228.05 412.22, 1229.62 412.74, 1233.15 413.02 C 1236.68 413.29, 1239.10 412.72, 1244.04 412.11 C 1248.99 411.51, 1252.26 410.83, 1257.87 409.97 C 1263.47 409.11, 1266.56 408.12, 1272.07 407.80 C 1277.57 407.48, 1280.29 407.22, 1285.39 408.37 C 1290.48 409.51, 1292.94 410.46, 1297.54 413.52 C 1302.15 416.58, 1304.20 418.40, 1308.40 423.66 C 1312.61 428.93, 1314.70 432.53, 1318.58 439.85 C 1322.46 447.17, 1324.68 451.86, 1327.78 460.27 C 1330.89 468.69, 1332.02 473.40, 1334.11 481.93 C 1336.20 490.46, 1337.09 494.83, 1338.23 502.92 C 1339.37 511.00, 1340.37 515.49, 1339.79 522.35 C 1339.22 529.22, 1338.48 532.07, 1335.36 537.24 C 1332.24 542.41, 1330.32 544.82, 1324.21 548.20 C 1318.09 551.58, 1314.55 552.82, 1304.78 554.16 C 1295.02 555.50, 1288.27 555.52, 1275.38 554.90 C 1262.50 554.28, 1254.49 553.44, 1240.37 551.07 C 1226.25 548.70, 1218.50 547.06, 1204.77 543.06 C 1191.04 539.06, 1183.75 536.40, 1171.71 531.07 C 1159.68 525.74, 1153.78 522.56, 1144.60 516.40 C 1135.42 510.24, 1131.37 506.73, 1125.82 500.26 C 1120.28 493.80, 1118.34 490.23, 1116.87 484.08 C 1115.40 477.93, 1115.79 475.09, 1118.47 469.52 C 1121.15 463.95, 1123.64 461.10, 1130.26 456.23 C 1136.88 451.37, 1141.60 448.87, 1151.56 445.20 C 1161.52 441.54, 1167.96 440.18, 1180.08 437.93 C 1192.19 435.67, 1199.11 434.69, 1212.12 433.93 C 1225.13 433.17, 1232.47 433.62, 1245.12 434.13 C 1257.77 434.63, 1264.52 435.73, 1275.38 436.46 C 1286.24 437.18, 1291.28 437.59, 1299.42 437.74 C 1307.56 437.90, 1311.00 437.80, 1316.08 437.22 C 1321.16 436.64, 1323.16 435.65, 1324.82 434.82 C 1326.49 434.00, 1326.20 433.08, 1324.40 433.10 C 1322.60 433.12, 1320.82 434.41, 1315.83 434.93 C 1310.83 435.45, 1307.51 435.74, 1299.45 435.71 C 1291.38 435.67, 1286.34 435.40, 1275.49 434.77 C 1264.64 434.15, 1257.87 433.06, 1245.18 432.59 C 1232.49 432.11, 1225.11 431.66, 1212.03 432.39 C 1198.95 433.13, 1192.00 434.08, 1179.77 436.28 C 1167.55 438.48, 1161.06 439.76, 1150.91 443.40 C 1140.75 447.04, 1135.88 449.46, 1128.98 454.49 C 1122.09 459.52, 1119.26 462.54, 1116.43 468.55 C 1113.60 474.57, 1113.21 477.99, 1114.81 484.58 C 1116.41 491.16, 1118.65 494.84, 1124.44 501.46 C 1130.22 508.09, 1134.39 511.53, 1143.73 517.71 C 1153.07 523.89, 1159.01 527.02, 1171.14 532.36 C 1183.27 537.69, 1190.59 540.34, 1204.38 544.37 C 1218.18 548.40, 1225.94 550.07, 1240.13 552.51 C 1254.31 554.95, 1262.32 555.85, 1275.30 556.56 C 1288.28 557.28, 1295.04 557.37, 1305.04 556.09 C 1315.04 554.82, 1318.80 553.69, 1325.29 550.17 C 1331.77 546.65, 1334.07 544.03, 1337.45 538.51 C 1340.83 532.99, 1341.58 529.73, 1342.18 522.55 C 1342.78 515.37, 1341.64 510.83, 1340.45 502.60 C 1339.26 494.37, 1338.33 490.03, 1336.22 481.41 C 1334.11 472.79, 1333.01 468.03, 1329.91 459.49 C 1326.82 450.95, 1324.63 446.21, 1320.76 438.71 C 1316.88 431.21, 1314.84 427.52, 1310.54 421.98 C 1306.23 416.45, 1304.11 414.39, 1299.22 411.03 C 1294.34 407.68, 1291.59 406.56, 1286.13 405.22 C 1280.67 403.88, 1277.67 404.17, 1271.91 404.34 C 1266.16 404.52, 1263.02 405.50, 1257.36 406.09 C 1251.71 406.69, 1248.43 407.08, 1243.62 407.33 C 1238.81 407.57, 1236.45 407.25, 1233.32 407.33 C 1230.18 407.41, 1229.02 407.68, 1227.96 407.73 C 1226.90 407.77, 1226.95 408.29, 1228.02 407.55 C 1229.08 406.81, 1230.49 405.84, 1233.28 404.01 C 1236.07 402.19, 1238.23 400.47, 1241.98 398.44 C 1245.72 396.42, 1248.34 395.22, 1252.02 393.88 C 1255.70 392.55, 1257.82 392.70, 1260.37 391.77 C 1262.93 390.84, 1264.01 390.25, 1264.80 389.22 C 1265.59 388.20, 1265.51 387.33, 1264.34 386.67" style="stroke: black; fill: black;"/></svg>