<svg xmlns="http://www.w3.org/2000/svg" id="canvas" viewBox="139.928 741.932 610.269 111.307"><path d="M 201.20,746.73 C 200.38 746.58, 199.28 746.62, 197.38 747.07 C 195.47 747.51, 194.16 747.79, 191.66 748.96 C 189.17 750.14, 187.52 751.13, 184.90 752.94 C 182.29 754.75, 180.98 755.85, 178.61 758.02 C 176.24 760.18, 175.11 761.40, 173.05 763.77 C 170.98 766.14, 169.85 767.46, 168.30 769.87 C 166.74 772.28, 166.11 773.50, 165.27 775.82 C 164.43 778.15, 164.21 779.33, 164.11 781.50 C 164.00 783.66, 164.18 784.71, 164.75 786.63 C 165.32 788.56, 165.83 789.46, 166.95 791.10 C 168.07 792.74, 168.84 793.45, 170.34 794.85 C 171.83 796.25, 172.83 796.95, 174.42 798.09 C 176.01 799.22, 176.94 799.67, 178.29 800.53 C 179.64 801.39, 180.32 801.73, 181.16 802.39 C 182.00 803.05, 182.41 803.26, 182.47 803.83 C 182.54 804.41, 182.38 804.53, 181.49 805.25 C 180.60 805.97, 179.81 806.39, 178.03 807.43 C 176.24 808.47, 175.04 809.10, 172.55 810.47 C 170.05 811.83, 168.46 812.81, 165.56 814.24 C 162.65 815.67, 160.89 816.43, 158.03 817.63 C 155.17 818.83, 153.62 819.38, 151.27 820.25 C 148.91 821.13, 147.73 821.48, 146.26 822.02 C 144.79 822.55, 144.28 822.78, 143.91 822.92 C 143.55 823.06, 143.73 823.12, 144.44 822.70 C 145.14 822.28, 145.81 821.90, 147.45 820.82 C 149.08 819.74, 150.26 818.94, 152.62 817.29 C 154.98 815.63, 156.41 814.46, 159.26 812.54 C 162.11 810.63, 163.78 809.64, 166.86 807.71 C 169.94 805.78, 171.60 804.74, 174.66 802.88 C 177.71 801.03, 179.34 800.12, 182.14 798.44 C 184.95 796.76, 186.37 795.97, 188.68 794.49 C 190.98 793.00, 192.16 792.16, 193.67 791.03 C 195.18 789.90, 195.78 789.39, 196.24 788.83 C 196.71 788.27, 196.49 787.96, 195.99 788.24 C 195.49 788.52, 194.78 788.99, 193.75 790.23 C 192.72 791.48, 191.94 792.50, 190.83 794.45 C 189.73 796.41, 189.12 797.79, 188.20 800.02 C 187.28 802.26, 186.73 803.61, 186.23 805.62 C 185.74 807.64, 185.58 808.58, 185.73 810.11 C 185.88 811.64, 186.06 812.36, 186.98 813.26 C 187.91 814.16, 188.67 814.55, 190.33 814.59 C 192.00 814.64, 193.16 814.30, 195.32 813.48 C 197.48 812.66, 198.69 812.01, 201.13 810.49 C 203.58 808.97, 204.94 807.88, 207.55 805.88 C 210.16 803.88, 211.68 802.59, 214.18 800.48 C 216.68 798.37, 218.05 797.19, 220.04 795.33 C 222.04 793.47, 223.02 792.42, 224.13 791.19 C 225.25 789.95, 225.58 789.40, 225.61 789.14 C 225.64 788.88, 225.18 788.95, 224.29 789.87 C 223.40 790.78, 222.50 791.63, 221.15 793.71 C 219.80 795.80, 219.06 797.39, 217.55 800.29 C 216.04 803.19, 215.23 804.98, 213.59 808.20 C 211.96 811.42, 211.01 813.11, 209.37 816.40 C 207.72 819.69, 206.95 821.48, 205.35 824.64 C 203.76 827.80, 202.94 829.37, 201.38 832.20 C 199.83 835.03, 199.04 836.40, 197.58 838.78 C 196.13 841.17, 195.38 842.38, 194.10 844.13 C 192.83 845.88, 192.13 846.58, 191.21 847.53 C 190.29 848.48, 189.93 848.75, 189.49 848.88 C 189.06 849.02, 189.06 848.82, 189.03 848.21 C 189.01 847.60, 189.10 847.09, 189.37 845.83 C 189.65 844.57, 189.80 843.67, 190.43 841.91 C 191.06 840.15, 191.39 839.15, 192.53 837.03 C 193.68 834.91, 194.40 833.72, 196.16 831.32 C 197.91 828.93, 198.95 827.63, 201.30 825.06 C 203.65 822.48, 204.99 821.16, 207.91 818.46 C 210.83 815.75, 212.55 814.26, 215.90 811.53 C 219.26 808.79, 221.10 807.42, 224.69 804.79 C 228.28 802.16, 230.21 800.81, 233.85 798.37 C 237.50 795.94, 239.43 794.70, 242.92 792.61 C 246.41 790.52, 248.23 789.54, 251.30 787.91 C 254.37 786.29, 255.86 785.62, 258.26 784.50 C 260.66 783.38, 261.70 782.92, 263.30 782.30 C 264.91 781.69, 265.55 781.49, 266.29 781.41 C 267.03 781.33, 267.01 781.39, 266.99 781.90 C 266.96 782.40, 266.64 782.85, 266.19 783.94 C 265.74 785.04, 265.38 785.78, 264.73 787.37 C 264.08 788.95, 263.69 789.98, 262.94 791.86 C 262.19 793.75, 261.75 794.94, 260.98 796.78 C 260.21 798.62, 259.80 799.49, 259.11 801.07 C 258.42 802.65, 258.06 803.34, 257.52 804.69 C 256.98 806.03, 256.71 806.71, 256.39 807.80 C 256.08 808.88, 256.00 809.34, 255.94 810.11 C 255.88 810.88, 255.91 811.13, 256.11 811.64 C 256.32 812.15, 256.45 812.42, 256.97 812.66 C 257.49 812.89, 257.98 813.02, 258.71 812.79 C 259.45 812.57, 259.78 812.23, 260.64 811.54 C 261.50 810.84, 261.88 810.39, 263.01 809.31 C 264.14 808.24, 264.81 807.66, 266.28 806.17 C 267.76 804.68, 268.60 803.82, 270.39 801.86 C 272.18 799.90, 273.11 798.75, 275.24 796.37 C 277.38 793.99, 278.55 792.72, 281.06 789.96 C 283.57 787.20, 285.00 785.61, 287.79 782.57 C 290.58 779.52, 292.11 777.91, 295.01 774.73 C 297.91 771.55, 299.44 769.79, 302.29 766.66 C 305.14 763.53, 306.65 761.85, 309.25 759.10 C 311.84 756.34, 313.19 755.10, 315.26 752.88 C 317.33 750.65, 318.41 749.47, 319.58 747.97 C 320.75 746.48, 321.10 745.77, 321.12 745.40 C 321.14 745.03, 320.66 745.11, 319.68 746.11 C 318.70 747.11, 317.84 747.90, 316.21 750.40 C 314.59 752.89, 313.70 754.95, 311.57 758.58 C 309.43 762.21, 308.01 764.51, 305.53 768.55 C 303.04 772.58, 301.56 774.76, 299.15 778.76 C 296.74 782.77, 295.52 784.97, 293.49 788.59 C 291.46 792.20, 290.43 793.99, 288.99 796.83 C 287.55 799.68, 286.93 800.89, 286.30 802.79 C 285.67 804.70, 285.65 805.36, 285.86 806.36 C 286.06 807.35, 286.47 807.61, 287.33 807.77 C 288.19 807.92, 288.84 807.75, 290.14 807.13 C 291.43 806.51, 292.30 805.85, 293.79 804.66 C 295.29 803.47, 296.04 802.61, 297.60 801.17 C 299.16 799.74, 300.06 798.89, 301.60 797.49 C 303.15 796.09, 303.96 795.39, 305.33 794.18 C 306.70 792.97, 307.35 792.35, 308.44 791.45 C 309.53 790.55, 309.99 790.20, 310.79 789.69 C 311.58 789.18, 311.76 789.08, 312.42 788.90 C 313.07 788.72, 313.28 788.81, 314.04 788.81 C 314.81 788.81, 315.26 789.04, 316.22 788.90 C 317.18 788.75, 317.82 788.55, 318.85 788.06 C 319.89 787.57, 320.38 787.17, 321.39 786.44 C 322.40 785.71, 322.96 785.33, 323.90 784.42 C 324.84 783.51, 325.40 782.98, 326.09 781.90 C 326.77 780.82, 327.06 780.13, 327.33 779.03 C 327.59 777.93, 327.67 777.34, 327.41 776.38 C 327.15 775.43, 326.89 774.85, 326.03 774.27 C 325.18 773.69, 324.54 773.41, 323.13 773.49 C 321.72 773.57, 320.80 773.73, 318.99 774.67 C 317.19 775.60, 316.04 776.43, 314.10 778.16 C 312.15 779.89, 311.07 781.10, 309.27 783.32 C 307.46 785.54, 306.41 786.83, 305.06 789.26 C 303.71 791.70, 303.05 793.13, 302.52 795.50 C 301.98 797.87, 301.99 799.15, 302.39 801.13 C 302.79 803.10, 303.28 804.01, 304.53 805.36 C 305.78 806.70, 306.71 807.30, 308.63 807.87 C 310.56 808.43, 311.76 808.50, 314.16 808.19 C 316.55 807.89, 317.96 807.40, 320.61 806.33 C 323.25 805.26, 324.65 804.40, 327.36 802.84 C 330.08 801.27, 331.55 800.29, 334.19 798.49 C 336.83 796.70, 338.23 795.69, 340.55 793.87 C 342.86 792.06, 344.01 791.01, 345.76 789.42 C 347.51 787.83, 348.35 786.92, 349.30 785.92 C 350.25 784.91, 350.40 784.52, 350.50 784.39 C 350.60 784.25, 350.35 784.46, 349.80 785.23 C 349.25 786.01, 348.68 786.71, 347.76 788.26 C 346.84 789.81, 346.11 791.09, 345.20 792.97 C 344.30 794.85, 343.77 796.05, 343.24 797.65 C 342.70 799.26, 342.46 800.00, 342.52 801.00 C 342.59 802.00, 342.81 802.38, 343.57 802.65 C 344.33 802.91, 345.01 802.84, 346.32 802.31 C 347.62 801.77, 348.44 801.18, 350.09 799.98 C 351.74 798.77, 352.65 797.78, 354.58 796.29 C 356.50 794.81, 357.71 793.93, 359.72 792.55 C 361.73 791.16, 362.92 790.41, 364.63 789.38 C 366.33 788.36, 367.25 787.87, 368.26 787.43 C 369.28 786.99, 369.56 786.87, 369.70 787.17 C 369.85 787.46, 369.51 787.88, 368.99 788.89 C 368.47 789.91, 367.88 790.76, 367.12 792.24 C 366.35 793.73, 365.81 794.75, 365.16 796.32 C 364.52 797.88, 364.08 798.82, 363.90 800.08 C 363.72 801.33, 363.80 801.92, 364.25 802.61 C 364.71 803.30, 365.13 803.54, 366.17 803.53 C 367.21 803.52, 367.92 803.34, 369.47 802.57 C 371.01 801.81, 371.96 801.11, 373.91 799.71 C 375.86 798.31, 376.99 797.23, 379.21 795.57 C 381.43 793.91, 382.75 792.93, 385.02 791.41 C 387.28 789.89, 388.61 789.07, 390.53 787.96 C 392.46 786.85, 393.45 786.32, 394.64 785.88 C 395.83 785.43, 396.12 785.45, 396.48 785.73 C 396.85 786.00, 396.70 786.38, 396.45 787.25 C 396.19 788.12, 395.72 788.73, 395.22 790.10 C 394.71 791.46, 394.31 792.44, 393.93 794.06 C 393.54 795.69, 393.32 796.61, 393.29 798.22 C 393.26 799.84, 393.27 800.73, 393.76 802.13 C 394.25 803.54, 394.63 804.29, 395.74 805.26 C 396.85 806.22, 397.70 806.59, 399.31 806.96 C 400.92 807.33, 401.82 807.34, 403.80 807.12 C 405.78 806.90, 406.95 806.62, 409.21 805.88 C 411.47 805.15, 412.82 804.52, 415.12 803.44 C 417.41 802.36, 418.63 801.70, 420.67 800.49 C 422.72 799.29, 423.73 798.66, 425.33 797.41 C 426.92 796.16, 428.11 795.08, 428.65 794.26 C 429.18 793.45, 428.92 793.12, 427.99 793.34 C 427.06 793.56, 425.75 794.46, 424.01 795.38 C 422.27 796.31, 421.33 796.94, 419.29 797.99 C 417.25 799.04, 416.04 799.64, 413.83 800.63 C 411.61 801.62, 410.30 802.21, 408.22 802.94 C 406.13 803.67, 405.09 803.98, 403.40 804.28 C 401.71 804.58, 401.02 804.60, 399.78 804.44 C 398.55 804.28, 397.98 804.09, 397.24 803.49 C 396.49 802.89, 396.29 802.45, 396.05 801.44 C 395.82 800.44, 395.87 799.75, 396.06 798.44 C 396.26 797.13, 396.60 796.38, 397.04 794.88 C 397.47 793.38, 397.94 792.46, 398.24 790.95 C 398.55 789.44, 398.75 788.58, 398.57 787.32 C 398.39 786.06, 398.20 785.35, 397.33 784.65 C 396.45 783.96, 395.81 783.68, 394.19 783.85 C 392.58 784.01, 391.43 784.48, 389.26 785.48 C 387.09 786.48, 385.75 787.34, 383.35 788.83 C 380.96 790.31, 379.58 791.29, 377.28 792.91 C 374.98 794.53, 373.76 795.51, 371.87 796.92 C 369.98 798.33, 369.08 798.98, 367.84 799.95 C 366.59 800.92, 366.17 801.33, 365.65 801.79 C 365.14 802.24, 365.14 802.40, 365.26 802.22 C 365.38 802.05, 365.65 801.81, 366.24 800.92 C 366.84 800.03, 367.42 799.24, 368.23 797.78 C 369.03 796.33, 369.64 795.30, 370.26 793.63 C 370.89 791.97, 371.28 790.92, 371.37 789.47 C 371.45 788.02, 371.39 787.21, 370.68 786.40 C 369.97 785.60, 369.31 785.36, 367.83 785.46 C 366.36 785.55, 365.28 785.98, 363.32 786.88 C 361.35 787.77, 360.16 788.58, 358.01 789.93 C 355.86 791.27, 354.57 792.14, 352.56 793.60 C 350.55 795.06, 349.49 795.95, 347.95 797.24 C 346.41 798.54, 345.74 799.18, 344.86 800.07 C 343.98 800.95, 343.72 801.39, 343.56 801.66 C 343.40 801.93, 343.59 801.95, 344.07 801.42 C 344.55 800.88, 345.06 800.32, 345.96 798.97 C 346.86 797.63, 347.56 796.52, 348.55 794.67 C 349.55 792.82, 350.30 791.52, 350.93 789.73 C 351.55 787.93, 351.75 786.91, 351.69 785.69 C 351.63 784.48, 351.36 783.94, 350.63 783.65 C 349.89 783.36, 349.35 783.51, 348.02 784.26 C 346.69 785.00, 345.83 785.88, 344.00 787.37 C 342.16 788.87, 341.12 789.95, 338.87 791.74 C 336.61 793.53, 335.29 794.59, 332.72 796.33 C 330.15 798.07, 328.67 799.00, 326.02 800.44 C 323.37 801.88, 321.93 802.54, 319.47 803.53 C 317.01 804.53, 315.76 805.01, 313.72 805.41 C 311.67 805.80, 310.76 805.81, 309.23 805.50 C 307.71 805.20, 307.04 804.82, 306.11 803.87 C 305.19 802.91, 304.83 802.28, 304.62 800.73 C 304.40 799.19, 304.45 798.15, 305.04 796.15 C 305.63 794.15, 306.25 792.89, 307.58 790.73 C 308.91 788.57, 309.95 787.37, 311.69 785.36 C 313.44 783.34, 314.53 782.22, 316.30 780.63 C 318.07 779.04, 319.11 778.32, 320.55 777.40 C 322.00 776.48, 322.64 776.32, 323.54 776.02 C 324.44 775.72, 324.70 775.78, 325.06 775.92 C 325.43 776.06, 325.41 776.24, 325.37 776.70 C 325.33 777.17, 325.19 777.51, 324.87 778.24 C 324.54 778.96, 324.34 779.50, 323.75 780.31 C 323.15 781.12, 322.71 781.53, 321.89 782.28 C 321.07 783.02, 320.50 783.39, 319.63 784.03 C 318.76 784.68, 318.32 785.04, 317.53 785.49 C 316.74 785.94, 316.42 786.07, 315.67 786.28 C 314.93 786.49, 314.59 786.38, 313.83 786.52 C 313.06 786.67, 312.67 786.74, 311.85 787.00 C 311.03 787.26, 310.72 787.34, 309.74 787.83 C 308.75 788.32, 308.17 788.60, 306.94 789.45 C 305.71 790.30, 305.02 790.92, 303.57 792.09 C 302.12 793.25, 301.29 793.93, 299.67 795.26 C 298.06 796.59, 297.10 797.40, 295.48 798.75 C 293.86 800.10, 292.96 800.78, 291.57 802.00 C 290.18 803.23, 289.39 803.93, 288.52 804.86 C 287.64 805.80, 287.48 806.36, 287.19 806.66 C 286.90 806.96, 286.86 806.98, 287.07 806.36 C 287.28 805.74, 287.46 805.26, 288.24 803.55 C 289.03 801.85, 289.62 800.65, 291.00 797.83 C 292.37 795.02, 293.20 793.12, 295.13 789.48 C 297.07 785.85, 298.26 783.66, 300.67 779.68 C 303.07 775.69, 304.56 773.53, 307.14 769.57 C 309.72 765.60, 311.24 763.34, 313.58 759.83 C 315.91 756.32, 317.27 754.58, 318.81 752.02 C 320.34 749.46, 320.83 748.44, 321.25 747.03 C 321.68 745.62, 321.59 745.07, 320.94 744.95 C 320.30 744.84, 319.52 745.21, 318.02 746.47 C 316.53 747.72, 315.54 748.99, 313.48 751.24 C 311.43 753.50, 310.27 754.90, 307.75 757.73 C 305.24 760.56, 303.72 762.25, 300.89 765.40 C 298.07 768.54, 296.54 770.30, 293.62 773.46 C 290.71 776.62, 289.17 778.21, 286.33 781.20 C 283.49 784.20, 282.03 785.75, 279.44 788.43 C 276.84 791.10, 275.59 792.31, 273.34 794.58 C 271.09 796.85, 270.03 797.88, 268.18 799.77 C 266.34 801.66, 265.58 802.56, 264.12 804.01 C 262.66 805.47, 262.00 806.01, 260.88 807.04 C 259.76 808.07, 259.24 808.44, 258.51 809.17 C 257.79 809.90, 257.54 810.20, 257.25 810.68 C 256.96 811.17, 257.01 811.41, 257.08 811.60 C 257.15 811.78, 257.41 811.83, 257.60 811.61 C 257.79 811.39, 257.83 811.13, 258.04 810.52 C 258.26 809.90, 258.31 809.51, 258.66 808.54 C 259.02 807.57, 259.24 806.93, 259.81 805.66 C 260.38 804.40, 260.72 803.73, 261.50 802.20 C 262.28 800.67, 262.82 799.83, 263.71 798.01 C 264.60 796.19, 265.13 795.01, 265.94 793.11 C 266.75 791.20, 267.22 790.20, 267.78 788.49 C 268.34 786.77, 268.64 785.94, 268.76 784.53 C 268.88 783.13, 268.87 782.39, 268.40 781.46 C 267.93 780.53, 267.57 780.14, 266.42 779.90 C 265.27 779.65, 264.49 779.76, 262.65 780.23 C 260.80 780.71, 259.69 781.12, 257.22 782.28 C 254.75 783.45, 253.34 784.32, 250.28 786.07 C 247.23 787.81, 245.42 788.84, 241.94 791.00 C 238.45 793.17, 236.52 794.43, 232.86 796.89 C 229.20 799.36, 227.27 800.71, 223.64 803.34 C 220.01 805.98, 218.15 807.35, 214.73 810.07 C 211.31 812.78, 209.56 814.26, 206.54 816.94 C 203.51 819.62, 202.12 820.91, 199.61 823.45 C 197.10 826.00, 195.92 827.23, 193.98 829.65 C 192.04 832.07, 191.20 833.30, 189.89 835.55 C 188.59 837.80, 188.13 838.88, 187.46 840.88 C 186.79 842.88, 186.56 843.95, 186.55 845.54 C 186.54 847.14, 186.82 847.92, 187.42 848.86 C 188.02 849.80, 188.53 850.17, 189.56 850.23 C 190.59 850.29, 191.27 850.07, 192.57 849.16 C 193.88 848.25, 194.66 847.47, 196.11 845.66 C 197.55 843.85, 198.34 842.59, 199.81 840.12 C 201.27 837.64, 201.92 836.18, 203.42 833.28 C 204.92 830.38, 205.73 828.80, 207.31 825.62 C 208.89 822.44, 209.65 820.65, 211.33 817.39 C 213.01 814.14, 213.95 812.46, 215.71 809.33 C 217.48 806.20, 218.49 804.53, 220.15 801.74 C 221.81 798.95, 222.84 797.59, 224.01 795.40 C 225.18 793.21, 225.69 792.14, 226.01 790.79 C 226.33 789.43, 226.26 788.89, 225.61 788.63 C 224.95 788.37, 224.23 788.58, 222.74 789.50 C 221.24 790.41, 220.19 791.42, 218.13 793.21 C 216.08 795.01, 214.91 796.38, 212.47 798.48 C 210.03 800.58, 208.53 801.84, 205.93 803.70 C 203.33 805.56, 201.85 806.39, 199.49 807.78 C 197.13 809.18, 195.99 809.77, 194.12 810.66 C 192.25 811.55, 191.34 811.94, 190.13 812.23 C 188.93 812.52, 188.56 812.51, 188.10 812.09 C 187.64 811.67, 187.67 811.25, 187.83 810.12 C 188.00 809.00, 188.25 808.21, 188.93 806.46 C 189.61 804.72, 190.21 803.45, 191.23 801.41 C 192.26 799.36, 193.06 798.16, 194.08 796.23 C 195.10 794.30, 195.77 793.29, 196.35 791.76 C 196.94 790.23, 197.14 789.41, 197.02 788.59 C 196.89 787.78, 196.66 787.61, 195.73 787.68 C 194.79 787.75, 194.05 788.05, 192.35 788.96 C 190.66 789.88, 189.52 790.76, 187.23 792.26 C 184.95 793.75, 183.66 794.70, 180.91 796.45 C 178.16 798.19, 176.55 799.12, 173.50 800.98 C 170.45 802.85, 168.79 803.89, 165.66 805.76 C 162.54 807.63, 160.86 808.59, 157.87 810.34 C 154.89 812.09, 153.22 812.91, 150.75 814.52 C 148.28 816.14, 147.04 816.96, 145.52 818.41 C 143.99 819.85, 143.51 820.67, 143.13 821.76 C 142.75 822.84, 142.90 823.34, 143.63 823.82 C 144.35 824.31, 145.05 824.38, 146.76 824.18 C 148.47 823.98, 149.71 823.64, 152.17 822.82 C 154.63 822.00, 156.15 821.31, 159.07 820.10 C 161.98 818.88, 163.74 818.09, 166.74 816.73 C 169.74 815.38, 171.46 814.65, 174.05 813.30 C 176.65 811.95, 177.86 811.31, 179.69 810.01 C 181.52 808.71, 182.32 808.08, 183.22 806.81 C 184.11 805.55, 184.27 804.89, 184.18 803.68 C 184.09 802.48, 183.64 801.88, 182.77 800.81 C 181.90 799.73, 181.17 799.33, 179.83 798.32 C 178.50 797.30, 177.63 796.86, 176.11 795.75 C 174.58 794.64, 173.63 793.99, 172.21 792.77 C 170.80 791.54, 170.06 790.98, 169.03 789.62 C 168.00 788.25, 167.56 787.53, 167.05 785.93 C 166.54 784.33, 166.37 783.47, 166.48 781.62 C 166.59 779.78, 166.78 778.76, 167.60 776.70 C 168.41 774.65, 169.08 773.59, 170.55 771.34 C 172.03 769.08, 173.02 767.72, 174.97 765.44 C 176.93 763.16, 178.03 761.96, 180.34 759.94 C 182.64 757.92, 183.96 756.97, 186.51 755.34 C 189.05 753.72, 190.72 753.00, 193.06 751.81 C 195.40 750.63, 196.50 750.20, 198.19 749.41 C 199.87 748.61, 200.89 748.37, 201.49 747.83 C 202.10 747.30, 202.02 746.89, 201.20 746.73" style="stroke: black; fill: black;"/><path d="M 433.74,794.21 C 434.47 794.62, 435.51 794.94, 437.37 795.11 C 439.23 795.28, 440.97 795.33, 443.05 795.06 C 445.14 794.78, 446.87 794.26, 447.80 793.72 C 448.72 793.17, 448.66 792.70, 447.67 792.33 C 446.68 791.95, 444.92 791.86, 442.85 791.85 C 440.78 791.83, 439.13 792.02, 437.31 792.27 C 435.49 792.51, 434.47 792.68, 433.76 793.07 C 433.05 793.46, 433.02 793.81, 433.74 794.21" style="stroke: black; fill: black;"/><path d="M 474.32,778.41 C 474.15 778.88, 474.38 779.34, 474.47 780.34 C 474.57 781.33, 474.76 781.84, 474.78 783.38 C 474.81 784.91, 474.85 785.97, 474.60 788.00 C 474.36 790.03, 474.05 791.24, 473.56 793.53 C 473.07 795.82, 472.74 797.16, 472.17 799.47 C 471.60 801.78, 471.23 803.09, 470.72 805.10 C 470.21 807.11, 469.91 808.08, 469.60 809.52 C 469.29 810.96, 469.15 811.60, 469.18 812.28 C 469.21 812.96, 469.42 813.12, 469.74 812.92 C 470.06 812.72, 470.39 812.42, 470.78 811.28 C 471.18 810.14, 471.33 809.25, 471.71 807.22 C 472.08 805.19, 472.26 803.78, 472.67 801.15 C 473.07 798.52, 473.22 796.96, 473.72 794.06 C 474.22 791.16, 474.50 789.54, 475.16 786.65 C 475.83 783.75, 476.32 782.26, 477.05 779.59 C 477.78 776.92, 478.06 775.60, 478.81 773.29 C 479.57 770.98, 479.94 769.89, 480.83 768.05 C 481.73 766.21, 482.29 765.38, 483.31 764.07 C 484.33 762.77, 484.78 762.21, 485.94 761.53 C 487.10 760.85, 487.62 760.74, 489.10 760.65 C 490.58 760.57, 491.50 760.66, 493.33 761.12 C 495.17 761.58, 496.17 761.97, 498.29 762.95 C 500.40 763.93, 501.60 764.66, 503.90 766.03 C 506.20 767.39, 507.51 768.15, 509.77 769.79 C 512.03 771.44, 513.22 772.39, 515.20 774.23 C 517.18 776.07, 518.23 777.05, 519.65 779.00 C 521.07 780.94, 521.71 781.95, 522.31 783.95 C 522.91 785.95, 522.93 786.95, 522.64 788.99 C 522.36 791.02, 521.98 792.03, 520.88 794.12 C 519.77 796.21, 518.97 797.35, 517.11 799.42 C 515.25 801.49, 514.10 802.55, 511.59 804.46 C 509.08 806.37, 507.46 807.36, 504.57 808.96 C 501.67 810.56, 500.02 811.29, 497.11 812.47 C 494.20 813.65, 492.59 814.07, 490.02 814.84 C 487.45 815.61, 486.17 815.96, 484.26 816.32 C 482.35 816.68, 481.50 816.74, 480.46 816.64 C 479.42 816.53, 479.15 816.37, 479.06 815.80 C 478.97 815.22, 479.21 814.79, 480.02 813.77 C 480.82 812.75, 481.43 812.06, 483.09 810.68 C 484.74 809.30, 485.84 808.40, 488.28 806.86 C 490.72 805.33, 492.27 804.44, 495.28 803.01 C 498.29 801.58, 500.06 800.91, 503.33 799.72 C 506.61 798.53, 508.39 798.00, 511.65 797.06 C 514.92 796.12, 516.65 795.79, 519.65 795.02 C 522.65 794.25, 524.20 793.92, 526.65 793.21 C 529.09 792.49, 530.11 792.13, 531.87 791.43 C 533.63 790.74, 534.34 790.43, 535.47 789.75 C 536.59 789.07, 537.04 788.73, 537.50 788.02 C 537.95 787.32, 537.92 786.86, 537.75 786.23 C 537.59 785.59, 537.33 785.19, 536.69 784.85 C 536.04 784.50, 535.49 784.29, 534.53 784.49 C 533.57 784.70, 532.91 785.02, 531.88 785.87 C 530.85 786.72, 530.37 787.36, 529.39 788.74 C 528.41 790.12, 527.81 791.02, 526.97 792.77 C 526.13 794.52, 525.62 795.59, 525.20 797.50 C 524.77 799.42, 524.57 800.58, 524.83 802.36 C 525.08 804.14, 525.38 805.09, 526.48 806.40 C 527.57 807.72, 528.39 808.35, 530.30 808.94 C 532.21 809.53, 533.47 809.64, 536.03 809.36 C 538.60 809.08, 540.25 808.58, 543.11 807.53 C 545.98 806.47, 547.43 805.67, 550.34 804.10 C 553.26 802.52, 554.91 801.50, 557.69 799.66 C 560.47 797.81, 561.95 796.69, 564.23 794.87 C 566.52 793.04, 567.66 792.03, 569.11 790.51 C 570.56 789.00, 571.16 788.08, 571.49 787.30 C 571.82 786.51, 571.42 786.28, 570.75 786.59 C 570.09 786.89, 569.29 787.45, 568.17 788.81 C 567.06 790.17, 566.18 791.37, 565.19 793.39 C 564.21 795.41, 563.70 796.80, 563.25 798.91 C 562.80 801.01, 562.68 802.14, 562.93 803.93 C 563.19 805.72, 563.58 806.61, 564.53 807.86 C 565.48 809.11, 566.14 809.62, 567.67 810.20 C 569.21 810.78, 570.22 810.90, 572.20 810.76 C 574.19 810.62, 575.35 810.36, 577.60 809.50 C 579.84 808.64, 581.12 807.96, 583.44 806.48 C 585.77 805.01, 587.13 804.04, 589.22 802.12 C 591.32 800.21, 592.39 798.94, 593.93 796.92 C 595.47 794.90, 596.20 793.77, 596.93 792.02 C 597.66 790.26, 597.71 789.30, 597.57 788.13 C 597.44 786.97, 597.03 786.56, 596.25 786.17 C 595.48 785.79, 594.73 785.82, 593.71 786.20 C 592.69 786.58, 591.83 787.07, 591.16 788.07 C 590.49 789.08, 590.23 790.07, 590.35 791.23 C 590.48 792.40, 590.82 793.06, 591.79 793.91 C 592.76 794.75, 593.39 795.19, 595.21 795.46 C 597.04 795.72, 598.32 795.64, 600.91 795.23 C 603.51 794.82, 605.13 794.32, 608.20 793.41 C 611.27 792.51, 612.98 791.81, 616.26 790.71 C 619.54 789.61, 621.57 788.94, 624.58 787.91 C 627.60 786.88, 629.37 786.42, 631.33 785.55 C 633.29 784.68, 634.00 784.01, 634.38 783.58 C 634.76 783.16, 634.35 782.97, 633.23 783.42 C 632.11 783.87, 630.90 784.44, 628.80 785.83 C 626.70 787.23, 625.18 788.44, 622.75 790.40 C 620.31 792.37, 618.77 793.63, 616.64 795.68 C 614.51 797.72, 613.43 798.86, 612.09 800.64 C 610.75 802.42, 610.25 803.26, 609.94 804.59 C 609.64 805.92, 609.79 806.48, 610.56 807.27 C 611.34 808.06, 612.15 808.44, 613.81 808.55 C 615.48 808.66, 616.64 808.50, 618.89 807.82 C 621.13 807.13, 622.50 806.48, 625.02 805.14 C 627.55 803.81, 629.04 802.84, 631.53 801.15 C 634.01 799.46, 635.43 798.50, 637.45 796.71 C 639.48 794.92, 640.42 793.92, 641.64 792.20 C 642.87 790.48, 643.24 789.57, 643.57 788.10 C 643.90 786.63, 643.80 785.90, 643.29 784.84 C 642.77 783.77, 642.11 783.31, 641.01 782.77 C 639.90 782.24, 638.99 782.13, 637.76 782.18 C 636.52 782.22, 635.74 782.42, 634.82 782.99 C 633.90 783.56, 633.39 784.14, 633.16 785.04 C 632.92 785.93, 632.97 786.59, 633.65 787.44 C 634.33 788.29, 634.96 788.76, 636.54 789.29 C 638.11 789.82, 639.20 789.97, 641.52 790.09 C 643.85 790.21, 645.32 790.17, 648.16 789.88 C 651.00 789.60, 652.62 789.25, 655.74 788.67 C 658.86 788.10, 660.66 787.66, 663.75 787.00 C 666.83 786.33, 668.53 785.94, 671.17 785.36 C 673.80 784.77, 675.14 784.35, 676.93 784.05 C 678.72 783.76, 679.47 783.61, 680.12 783.89 C 680.77 784.17, 680.72 784.39, 680.18 785.47 C 679.64 786.55, 679.00 787.22, 677.41 789.31 C 675.82 791.39, 674.73 792.94, 672.23 795.90 C 669.74 798.85, 668.04 800.66, 664.94 804.09 C 661.84 807.52, 660.03 809.48, 656.74 813.03 C 653.45 816.58, 651.53 818.60, 648.48 821.84 C 645.42 825.08, 643.76 826.72, 641.45 829.22 C 639.14 831.72, 638.07 832.84, 636.92 834.33 C 635.77 835.83, 635.58 836.47, 635.71 836.69 C 635.83 836.92, 636.37 836.70, 637.53 835.46 C 638.69 834.23, 639.63 833.07, 641.52 830.52 C 643.41 827.97, 644.43 826.00, 647.00 822.71 C 649.57 819.42, 651.24 817.47, 654.38 814.07 C 657.52 810.67, 659.41 808.87, 662.69 805.70 C 665.98 802.53, 667.67 800.91, 670.82 798.24 C 673.97 795.57, 675.60 794.38, 678.45 792.37 C 681.30 790.36, 682.77 789.59, 685.07 788.19 C 687.37 786.79, 688.29 786.18, 689.96 785.36 C 691.63 784.55, 692.37 784.39, 693.42 784.11 C 694.47 783.84, 694.76 783.87, 695.22 784.00 C 695.68 784.13, 695.65 784.28, 695.72 784.75 C 695.79 785.21, 695.73 785.58, 695.59 786.33 C 695.45 787.08, 695.32 787.54, 695.02 788.50 C 694.72 789.46, 694.60 790.03, 694.09 791.14 C 693.58 792.25, 693.27 792.84, 692.45 794.06 C 691.64 795.27, 691.07 795.95, 690.03 797.19 C 688.99 798.43, 688.34 799.10, 687.26 800.26 C 686.18 801.42, 685.67 801.96, 684.63 802.98 C 683.59 803.99, 683.02 804.45, 682.07 805.34 C 681.12 806.24, 680.56 806.58, 679.86 807.46 C 679.17 808.33, 678.82 808.79, 678.59 809.71 C 678.35 810.62, 678.30 811.17, 678.68 812.02 C 679.05 812.88, 679.40 813.39, 680.45 813.97 C 681.50 814.56, 682.25 814.83, 683.92 814.95 C 685.58 815.08, 686.59 814.99, 688.80 814.60 C 691.00 814.22, 692.27 813.92, 694.94 813.04 C 697.62 812.16, 699.14 811.52, 702.16 810.21 C 705.18 808.89, 706.80 808.04, 710.05 806.48 C 713.30 804.92, 715.14 804.02, 718.41 802.41 C 721.69 800.81, 723.44 799.99, 726.44 798.46 C 729.44 796.93, 730.90 796.14, 733.40 794.77 C 735.90 793.41, 737.08 792.72, 738.93 791.63 C 740.79 790.54, 741.53 790.09, 742.68 789.33 C 743.84 788.58, 744.23 788.26, 744.72 787.85 C 745.21 787.45, 745.18 787.36, 745.12 787.30 C 745.06 787.23, 744.73 787.21, 744.42 787.53 C 744.11 787.84, 743.75 788.19, 743.57 788.89 C 743.40 789.59, 743.51 790.13, 743.55 791.03 C 743.59 791.92, 743.68 792.36, 743.78 793.37 C 743.87 794.37, 743.90 795.01, 744.02 796.06 C 744.15 797.11, 744.33 797.61, 744.41 798.61 C 744.49 799.62, 744.56 800.12, 744.44 801.07 C 744.31 802.03, 744.27 802.46, 743.79 803.39 C 743.32 804.33, 743.01 804.82, 742.05 805.76 C 741.10 806.70, 740.46 807.16, 738.99 808.09 C 737.53 809.01, 736.59 809.56, 734.74 810.37 C 732.89 811.18, 731.66 811.49, 729.74 812.14 C 727.83 812.78, 726.62 813.23, 725.17 813.60 C 723.73 813.97, 723.24 813.99, 722.53 813.98 C 721.83 813.97, 721.83 813.85, 721.64 813.54 C 721.44 813.24, 721.76 812.69, 721.55 812.47 C 721.35 812.25, 720.84 812.10, 720.62 812.44 C 720.40 812.77, 720.16 813.48, 720.45 814.14 C 720.75 814.81, 721.07 815.34, 722.09 815.76 C 723.12 816.18, 723.87 816.37, 725.59 816.24 C 727.31 816.11, 728.60 815.72, 730.68 815.11 C 732.76 814.50, 734.01 814.10, 736.00 813.19 C 737.99 812.29, 739.03 811.69, 740.64 810.59 C 742.25 809.49, 742.96 808.90, 744.07 807.69 C 745.17 806.48, 745.56 805.79, 746.15 804.55 C 746.75 803.30, 746.83 802.68, 747.03 801.47 C 747.24 800.26, 747.20 799.62, 747.18 798.48 C 747.16 797.34, 746.99 796.84, 746.92 795.78 C 746.85 794.73, 746.84 794.16, 746.82 793.19 C 746.80 792.22, 746.83 791.78, 746.83 790.94 C 746.82 790.11, 746.92 789.69, 746.80 789.02 C 746.68 788.35, 746.50 788.07, 746.22 787.59 C 745.94 787.12, 745.84 786.89, 745.41 786.66 C 744.98 786.42, 744.82 786.27, 744.07 786.43 C 743.31 786.59, 742.89 786.85, 741.63 787.47 C 740.37 788.08, 739.64 788.50, 737.75 789.51 C 735.85 790.52, 734.63 791.13, 732.15 792.51 C 729.68 793.89, 728.31 794.83, 725.37 796.41 C 722.42 797.99, 720.69 798.81, 717.43 800.40 C 714.17 801.99, 712.31 802.88, 709.06 804.36 C 705.81 805.84, 704.18 806.64, 701.17 807.78 C 698.16 808.92, 696.61 809.32, 694.03 810.07 C 691.44 810.83, 690.24 811.17, 688.24 811.54 C 686.24 811.92, 685.38 811.94, 684.01 811.97 C 682.64 811.99, 682.14 811.83, 681.39 811.68 C 680.65 811.53, 680.47 811.46, 680.28 811.21 C 680.09 810.96, 680.18 810.85, 680.46 810.44 C 680.74 810.02, 681.01 809.75, 681.69 809.12 C 682.36 808.49, 682.88 808.13, 683.84 807.28 C 684.79 806.44, 685.38 805.92, 686.47 804.91 C 687.56 803.90, 688.12 803.40, 689.29 802.24 C 690.46 801.09, 691.20 800.46, 692.33 799.15 C 693.46 797.84, 694.06 797.05, 694.94 795.69 C 695.81 794.33, 696.13 793.63, 696.72 792.36 C 697.31 791.08, 697.57 790.51, 697.89 789.32 C 698.20 788.13, 698.39 787.47, 698.30 786.39 C 698.21 785.32, 697.93 784.71, 697.42 783.95 C 696.90 783.18, 696.61 782.90, 695.74 782.55 C 694.87 782.20, 694.42 782.06, 693.08 782.21 C 691.74 782.37, 690.90 782.56, 689.04 783.34 C 687.18 784.13, 686.16 784.66, 683.80 786.13 C 681.44 787.61, 680.07 788.57, 677.24 790.71 C 674.40 792.86, 672.78 794.11, 669.63 796.85 C 666.47 799.59, 664.79 801.24, 661.47 804.42 C 658.14 807.61, 656.25 809.41, 653.01 812.78 C 649.76 816.14, 648.00 818.05, 645.23 821.25 C 642.46 824.45, 641.03 826.16, 639.14 828.77 C 637.25 831.39, 636.46 832.69, 635.77 834.32 C 635.08 835.95, 635.18 836.66, 635.68 836.92 C 636.19 837.19, 636.82 836.89, 638.30 835.64 C 639.77 834.40, 640.74 833.20, 643.04 830.69 C 645.35 828.17, 646.81 826.37, 649.81 823.08 C 652.81 819.79, 654.72 817.77, 658.03 814.23 C 661.34 810.70, 663.16 808.76, 666.37 805.42 C 669.57 802.07, 671.35 800.38, 674.05 797.51 C 676.74 794.64, 678.24 793.37, 679.83 791.06 C 681.42 788.75, 681.77 787.63, 681.98 785.96 C 682.20 784.30, 681.93 783.59, 680.89 782.74 C 679.84 781.89, 678.83 781.74, 676.77 781.72 C 674.71 781.69, 673.30 782.07, 670.59 782.60 C 667.87 783.14, 666.24 783.73, 663.18 784.40 C 660.12 785.07, 658.34 785.49, 655.28 785.95 C 652.23 786.41, 650.63 786.53, 647.90 786.70 C 645.18 786.87, 643.78 786.85, 641.65 786.79 C 639.51 786.74, 638.57 786.60, 637.23 786.42 C 635.88 786.25, 635.44 786.07, 634.92 785.92 C 634.40 785.77, 634.42 785.76, 634.61 785.67 C 634.80 785.57, 635.21 785.56, 635.88 785.46 C 636.54 785.35, 637.07 785.23, 637.95 785.14 C 638.83 785.04, 639.50 784.89, 640.27 784.98 C 641.03 785.07, 641.50 785.09, 641.78 785.60 C 642.05 786.11, 642.08 786.52, 641.66 787.53 C 641.25 788.55, 640.91 789.28, 639.70 790.69 C 638.49 792.09, 637.57 792.94, 635.61 794.53 C 633.65 796.13, 632.30 797.11, 629.88 798.65 C 627.46 800.19, 625.92 801.00, 623.51 802.22 C 621.10 803.44, 619.81 803.99, 617.83 804.75 C 615.86 805.52, 614.94 805.75, 613.65 806.05 C 612.36 806.35, 611.81 806.42, 611.38 806.25 C 610.94 806.08, 610.94 805.99, 611.48 805.20 C 612.01 804.41, 612.60 803.77, 614.04 802.32 C 615.48 800.86, 616.53 799.78, 618.69 797.93 C 620.85 796.08, 622.40 794.94, 624.84 793.06 C 627.28 791.17, 628.97 790.20, 630.87 788.53 C 632.77 786.85, 633.65 785.82, 634.34 784.68 C 635.02 783.54, 635.06 783.13, 634.30 782.82 C 633.54 782.52, 632.64 782.65, 630.53 783.16 C 628.41 783.67, 626.73 784.34, 623.72 785.36 C 620.70 786.38, 618.71 787.22, 615.45 788.27 C 612.20 789.33, 610.46 789.89, 607.44 790.63 C 604.43 791.38, 602.79 791.58, 600.38 791.99 C 597.97 792.40, 596.86 792.64, 595.39 792.69 C 593.92 792.74, 593.57 792.53, 593.02 792.24 C 592.48 791.96, 592.52 791.73, 592.67 791.27 C 592.82 790.81, 593.32 790.55, 593.79 789.94 C 594.26 789.34, 594.61 788.79, 595.02 788.26 C 595.44 787.72, 595.69 787.29, 595.86 787.25 C 596.03 787.21, 596.11 787.32, 595.88 788.05 C 595.65 788.78, 595.55 789.50, 594.71 790.92 C 593.87 792.34, 593.20 793.35, 591.70 795.14 C 590.20 796.92, 589.18 798.11, 587.20 799.86 C 585.21 801.62, 583.93 802.52, 581.79 803.89 C 579.65 805.26, 578.46 805.88, 576.48 806.71 C 574.51 807.54, 573.52 807.77, 571.90 808.03 C 570.28 808.28, 569.52 808.29, 568.39 808.00 C 567.26 807.72, 566.85 807.45, 566.24 806.60 C 565.63 805.74, 565.35 805.09, 565.34 803.72 C 565.33 802.36, 565.49 801.48, 566.17 799.76 C 566.84 798.05, 567.75 797.01, 568.70 795.14 C 569.66 793.27, 570.33 792.02, 570.94 790.41 C 571.54 788.81, 571.80 787.94, 571.74 787.13 C 571.68 786.31, 571.53 786.07, 570.66 786.36 C 569.78 786.65, 568.98 787.30, 567.35 788.58 C 565.73 789.85, 564.73 790.93, 562.51 792.73 C 560.30 794.53, 558.96 795.75, 556.29 797.56 C 553.61 799.37, 551.96 800.35, 549.13 801.79 C 546.30 803.23, 544.83 803.83, 542.13 804.76 C 539.43 805.68, 537.88 806.04, 535.64 806.40 C 533.39 806.76, 532.40 806.83, 530.91 806.55 C 529.42 806.27, 528.90 805.88, 528.18 805.00 C 527.47 804.12, 527.36 803.48, 527.34 802.13 C 527.31 800.78, 527.56 799.85, 528.06 798.26 C 528.56 796.68, 529.04 795.73, 529.84 794.20 C 530.63 792.66, 531.22 791.81, 532.05 790.60 C 532.88 789.39, 533.29 788.86, 533.97 788.14 C 534.65 787.43, 535.01 787.33, 535.45 787.02 C 535.89 786.71, 535.96 786.70, 536.17 786.61 C 536.38 786.51, 536.50 786.48, 536.52 786.55 C 536.54 786.62, 536.69 786.68, 536.29 786.95 C 535.88 787.22, 535.54 787.44, 534.49 787.90 C 533.45 788.36, 532.79 788.69, 531.08 789.26 C 529.37 789.83, 528.35 790.07, 525.94 790.75 C 523.53 791.43, 522.01 791.82, 519.02 792.64 C 516.03 793.46, 514.30 793.87, 511.01 794.85 C 507.71 795.83, 505.91 796.35, 502.55 797.52 C 499.20 798.69, 497.40 799.33, 494.23 800.68 C 491.06 802.03, 489.35 802.73, 486.71 804.27 C 484.07 805.81, 482.78 806.71, 481.02 808.37 C 479.26 810.03, 478.60 811.00, 477.92 812.57 C 477.24 814.14, 477.19 815.05, 477.61 816.22 C 478.03 817.39, 478.63 817.91, 480.02 818.41 C 481.42 818.91, 482.44 818.92, 484.59 818.72 C 486.74 818.52, 488.09 818.20, 490.78 817.41 C 493.48 816.62, 495.07 816.02, 498.06 814.76 C 501.05 813.49, 502.73 812.74, 505.74 811.09 C 508.75 809.44, 510.43 808.46, 513.11 806.50 C 515.79 804.54, 517.12 803.50, 519.15 801.27 C 521.18 799.03, 522.07 797.73, 523.25 795.33 C 524.43 792.94, 524.79 791.71, 525.07 789.30 C 525.35 786.89, 525.32 785.64, 524.66 783.28 C 524.01 780.91, 523.32 779.69, 521.81 777.47 C 520.30 775.26, 519.20 774.19, 517.13 772.19 C 515.06 770.20, 513.80 769.24, 511.46 767.49 C 509.12 765.75, 507.83 764.92, 505.44 763.47 C 503.05 762.02, 501.81 761.26, 499.51 760.25 C 497.21 759.23, 496.06 758.80, 493.93 758.39 C 491.80 757.99, 490.69 757.98, 488.87 758.22 C 487.04 758.46, 486.29 758.74, 484.81 759.60 C 483.32 760.47, 482.69 761.08, 481.44 762.55 C 480.20 764.01, 479.60 764.94, 478.58 766.92 C 477.56 768.90, 477.18 770.07, 476.35 772.46 C 475.51 774.84, 475.17 776.15, 474.41 778.86 C 473.64 781.57, 473.23 783.09, 472.52 786.02 C 471.81 788.95, 471.49 790.59, 470.86 793.50 C 470.23 796.41, 469.89 797.93, 469.36 800.57 C 468.84 803.21, 468.46 804.61, 468.23 806.70 C 467.99 808.79, 468.01 809.76, 468.17 811.04 C 468.34 812.32, 468.59 812.73, 469.06 813.10 C 469.53 813.47, 469.94 813.45, 470.53 812.89 C 471.11 812.32, 471.42 811.68, 472.00 810.27 C 472.58 808.86, 472.81 807.87, 473.42 805.86 C 474.03 803.85, 474.42 802.55, 475.05 800.22 C 475.69 797.89, 476.04 796.58, 476.60 794.21 C 477.15 791.84, 477.59 790.60, 477.85 788.39 C 478.10 786.17, 478.10 784.89, 477.87 783.14 C 477.65 781.40, 477.24 780.70, 476.73 779.67 C 476.22 778.64, 475.82 778.23, 475.34 777.98 C 474.86 777.72, 474.50 777.93, 474.32 778.41" style="stroke: black; fill: black;"/></svg>